<?xml version="1.0" encoding="iso-8859-1"?>
<!-- Uploaded to: SVG Repo, www.svgrepo.com, Generator: SVG Repo Mixer Tools -->
<svg height="800px" width="800px" version="1.1" id="Layer_1" xmlns="http://www.w3.org/2000/svg" xmlns:xlink="http://www.w3.org/1999/xlink" 
	 viewBox="0 0 504 504" xml:space="preserve">
<g>
	<path style="fill:#E36D60;" d="M483.2,141.829c-10.8-6.8-25.2-6-40.8,1.6l-122.8,61.2c-0.4,0-0.4,0-0.8,0
		c9.2,9.6,14.8,22.8,14.8,37.2v25.2c0,12.4-4.4,24-11.2,33.2l120.4,60.4c15.6,7.6,30,8.4,40.8,1.6c9.6-6,15.2-17.2,16.8-31.6
		c0-2,0.4-4.4,0.4-6.4v-144.4c0-2.4,0-4.4-0.4-6.4C498.4,159.029,492.8,147.829,483.2,141.829z"/>
	<path style="fill:#E36D60;" d="M174.8,244.229v-2c0-14.8,6-28,15.6-38L68,143.429c-16-8-31.2-8.4-42.4-1.2
		c-11.2,6.8-17.6,20.4-17.6,37.6v144.4c0,17.6,6,30.8,17.2,37.6c11.6,7.2,26.4,6.4,42.4-1.2l118.4-58.4l0.8-0.4
		c-7.6-9.6-12.4-21.6-12.4-34.4L174.8,244.229L174.8,244.229z"/>
</g>
<path style="fill:#DF5C4E;" d="M318,212.229c-9.6-12.4-24.8-19.6-42-19.6h-46.4c-14.8,0-28,5.6-37.2,15.2c-8.8,9.2-14,20.8-14,34
	v25.2c0,12.4,4.4,24,12,32.8c0.4,0.4,2.8,3.6,2.8,3.6c9.2,9.2,22,15.6,36.4,15.6H278c16.8,0,31.6-8.8,40.8-20.8
	c6.4-8.4,10.4-19.6,10.4-31.2v-22.8C329.2,231.829,325.2,221.429,318,212.229z"/>
<path d="M42.4,373.029c-8,0-15.6-2-22-6c-13.2-8-20.4-23.2-20.4-42.8v-144.4c0-19.2,7.2-34.4,20.4-42.8s31.2-8,49.2,0.8l124.8,61.6
	c2,0.8,2.8,3.2,2,5.2s-3.2,2.8-5.2,2l-124.8-61.6c-15.2-7.6-30.4-8-41.2-1.2s-16.8,19.2-16.8,36v144.4c0,16.4,6,29.2,16.8,36
	s26,6.4,41.2-1.2l121.6-59.6c2-0.8,4.4,0,5.2,2s0,4.4-2,5.2l-121.6,59.6C60.4,371.029,50.8,373.029,42.4,373.029z"/>
<path d="M464.8,373.029c-8,0-17.2-2.4-26.4-6.8l-121.2-61.2c-2-0.8-2.8-3.6-1.6-5.2c0.8-2,3.6-2.8,5.2-1.6l121.2,61.2
	c14.8,7.2,28.4,8,38,2c10-6.4,15.6-19.2,15.6-36.4v-144.4c0-17.2-5.6-30.4-15.6-36.4s-23.2-5.2-38,2l-122.4,61.2
	c-2,0.8-4.4,0-5.2-1.6c-0.8-2,0-4.4,1.6-5.2l122.4-61.2c17.2-8.8,33.6-9.2,46-1.6c12.4,8,19.6,23.2,19.6,43.2v144.4
	c0,20-6.8,35.6-19.6,43.2C478.8,371.429,472,373.029,464.8,373.029z"/>
<path d="M278,323.829h-48.4c-32,0-59.2-25.6-59.2-56v-25.2c0-31.2,27.2-57.6,59.2-57.6H278c30.8,0,55.2,25.2,55.2,57.6v25.2
	C333.2,299.029,309.2,323.829,278,323.829z M229.6,192.629c-27.6,0-51.2,22.8-51.2,49.6v25.2c0,26,23.6,48,51.2,48H278
	c26.8,0,47.2-20.8,47.2-48v-25.2c0-27.6-20.8-49.6-47.2-49.6H229.6z"/>
<path d="M297.6,242.629c-2.4,0-4-1.6-4-4c0-10-8-18-18-18H258c-2.4,0-4-1.6-4-4s1.6-4,4-4h17.6c14.4,0,26,11.6,26,26
	C301.6,240.629,299.6,242.629,297.6,242.629z"/>
<path d="M389.2,212.629c-1.6,0-2.8-0.8-3.6-2.4c-0.8-2,0-4.4,2-5.2l54.4-27.2c8-4,16-4.4,22.4-0.8c2,1.2,2.8,3.6,1.6,5.6
	s-3.6,2.8-5.6,1.6c-4-2-9.2-1.6-14.8,1.2l-54.4,27.2C390.4,212.229,390,212.629,389.2,212.629z"/>
</svg>