<svg width="459" height="459" viewBox="0 0 459 459" fill="none" xmlns="http://www.w3.org/2000/svg">
<g clip-path="url(#clip0_170_108)">
<path d="M440.057 129.166C430.222 122.973 417.107 123.701 402.9 130.623L291.065 186.359C290.7 186.359 290.7 186.359 290.336 186.359C298.715 195.101 303.815 207.123 303.815 220.237V243.187C303.815 254.48 299.807 265.044 293.615 273.423L403.265 328.43C417.472 335.352 430.586 336.08 440.422 329.887C449.165 324.423 454.265 314.223 455.722 301.109C455.722 299.287 456.086 297.102 456.086 295.28V163.773C456.086 161.587 456.086 159.766 455.722 157.944C453.9 144.83 448.8 134.63 440.057 129.166Z" fill="#F087A3"/>
<path d="M159.192 222.423V220.602C159.192 207.123 164.657 195.102 173.399 185.994L61.928 130.623C47.3566 123.337 33.5137 122.973 23.3137 129.53C13.1137 135.723 7.28516 148.109 7.28516 163.773V295.28C7.28516 311.309 12.7494 323.33 22.9494 329.523C33.5137 336.08 46.9923 335.352 61.5637 328.43L169.392 275.244L170.121 274.88C163.199 266.137 158.828 255.209 158.828 243.552L159.192 222.423Z" fill="#F087A3"/>
<path d="M289.606 193.28C280.864 181.987 267.021 175.43 251.356 175.43H209.099C195.621 175.43 183.599 180.53 175.221 189.273C167.206 197.652 162.471 208.216 162.471 220.237V243.187C162.471 254.48 166.478 265.044 173.399 273.059C173.764 273.423 175.949 276.337 175.949 276.337C184.328 284.716 195.985 290.544 209.099 290.544H253.178C268.478 290.544 281.956 282.53 290.335 271.602C296.164 263.952 299.806 253.752 299.806 243.187V222.423C299.806 211.13 296.164 201.659 289.606 193.28Z" fill="#F087A3" fill-opacity="0.57"/>
<path d="M38.6143 339.723C31.3286 339.723 24.4071 337.901 18.5786 334.259C6.55714 326.973 0 313.13 0 295.28V163.773C0 146.287 6.55714 132.444 18.5786 124.794C30.6 117.144 46.9929 117.509 63.3857 125.523L177.043 181.623C178.864 182.351 179.593 184.537 178.864 186.359C178.136 188.18 175.95 188.909 174.129 188.18L60.4714 132.08C46.6286 125.159 32.7857 124.794 22.95 130.987C13.1143 137.18 7.65 148.473 7.65 163.773V295.28C7.65 310.216 13.1143 321.873 22.95 328.066C32.7857 334.259 46.6286 333.894 60.4714 326.973L171.214 272.694C173.036 271.966 175.221 272.694 175.95 274.516C176.679 276.337 175.95 278.523 174.129 279.251L63.3857 333.53C55.0071 337.901 46.2643 339.723 38.6143 339.723Z" fill="black"/>
<path d="M423.3 339.723C416.015 339.723 407.636 337.537 399.257 333.53L288.879 277.794C287.057 277.066 286.329 274.516 287.422 273.059C288.15 271.237 290.7 270.509 292.157 271.602L402.536 327.337C416.015 333.894 428.4 334.623 437.143 329.159C446.25 323.33 451.35 311.673 451.35 296.009V164.502C451.35 148.837 446.25 136.816 437.143 131.352C428.036 125.887 416.015 126.616 402.536 133.173L291.065 188.909C289.243 189.637 287.057 188.909 286.329 187.452C285.6 185.63 286.329 183.444 287.786 182.716L399.257 126.98C414.922 118.966 429.857 118.602 441.15 125.523C452.443 132.809 459 146.652 459 164.866V296.373C459 314.587 452.807 328.794 441.15 335.716C436.05 338.266 429.857 339.723 423.3 339.723Z" fill="black"/>
<path d="M253.178 294.916H209.1C179.957 294.916 155.186 271.602 155.186 243.916V220.966C155.186 192.552 179.957 168.509 209.1 168.509H253.178C281.228 168.509 303.45 191.459 303.45 220.966V243.916C303.45 272.33 281.593 294.916 253.178 294.916ZM209.1 175.43C183.964 175.43 162.471 196.195 162.471 220.602V243.552C162.471 267.23 183.964 287.266 209.1 287.266H253.178C277.586 287.266 296.164 268.323 296.164 243.552V220.602C296.164 195.466 277.221 175.43 253.178 175.43H209.1Z" fill="black"/>
<path d="M271.029 220.965C268.844 220.965 267.387 219.508 267.387 217.323C267.387 208.215 260.101 200.93 250.994 200.93H234.965C232.779 200.93 231.322 199.473 231.322 197.287C231.322 195.101 232.779 193.644 234.965 193.644H250.994C264.108 193.644 274.672 204.208 274.672 217.323C274.672 219.144 272.851 220.965 271.029 220.965Z" fill="black"/>
<path d="M354.45 193.644C352.993 193.644 351.9 192.916 351.172 191.459C350.443 189.637 351.172 187.452 352.993 186.723L402.536 161.952C409.822 158.309 417.107 157.944 422.936 161.223C424.757 162.316 425.486 164.502 424.393 166.323C423.3 168.144 421.115 168.873 419.293 167.78C415.65 165.959 410.915 166.323 405.815 168.873L356.272 193.644C355.543 193.28 355.179 193.644 354.45 193.644Z" fill="black"/>
</g>
<defs>
<clipPath id="clip0_170_108">
<rect width="459" height="459" fill="white"/>
</clipPath>
</defs>
</svg>
