<svg width="24" height="22" viewBox="0 0 24 22" fill="none" xmlns="http://www.w3.org/2000/svg">
<path fill-rule="evenodd" clip-rule="evenodd" d="M15 22L5.691 16H0V6H5.691L15 0V22ZM6 6.991V15.009L14 20.166V1.834L6 6.991ZM20.228 2.772C22.555 4.761 24 7.714 24 11.001C24 14.289 22.555 17.242 20.23 19.23L19.522 18.522C21.658 16.731 23 14.021 23 11C23 7.979 21.658 5.269 19.522 3.478L20.228 2.772ZM17.299 5.701C18.82 6.958 19.775 8.868 19.775 11C19.775 13.132 18.82 15.042 17.299 16.299L16.593 15.593C17.924 14.53 18.775 12.864 18.775 11.002C18.775 9.139 17.924 7.473 16.591 6.409L17.299 5.701ZM5 7H1V15H5V7Z" fill="#1F423B"/>
</svg>
